<?xml version="1.0" standalone="no"?>
<!DOCTYPE svg PUBLIC "-//W3C//DTD SVG 20010904//EN"
 "http://www.w3.org/TR/2001/REC-SVG-20010904/DTD/svg10.dtd">
<svg version="1.0" xmlns="http://www.w3.org/2000/svg"
 width="165.000000pt" height="165.000000pt" viewBox="0 0 165.000000 165.000000"
 preserveAspectRatio="xMidYMid meet">
<metadata>
Created by potrace 1.11, written by Peter Selinger 2001-2013
</metadata>
<g transform="translate(0.000000,165.000000) scale(0.100000,-0.100000)"
fill="#000000" stroke="none">
<path d="M528 1541 c-114 -45 -212 -151 -248 -269 -18 -59 -20 -93 -20 -432 0
-339 2 -373 20 -432 40 -129 149 -238 278 -278 92 -28 312 -29 404 0 120 37
225 133 267 245 37 97 37 95 -51 136 -15 6 -51 33 -80 59 l-53 47 0 -101 c-1
-116 -23 -197 -60 -222 -20 -13 -27 -13 -57 -1 -43 19 -118 97 -161 170 l-35
57 -7 -37 c-18 -97 -109 -263 -144 -263 -27 0 -65 49 -93 117 -20 50 -23 75
-23 188 0 109 4 141 23 200 27 81 138 285 155 285 7 0 59 15 117 34 l105 34
120 -61 c104 -53 130 -72 198 -140 l77 -80 0 205 c0 177 -3 215 -20 270 -37
119 -135 225 -250 269 -73 28 -392 27 -462 0z"/>
</g>
</svg>
